<svg xmlns="http://www.w3.org/2000/svg" width="1400" height="900" viewBox="0 0 1400 900" role="img" aria-label="Aaruni Tech promotional banner artwork">
  <defs>
    <linearGradient id="bg" x1="0" y1="0" x2="1" y2="1">
      <stop offset="0" stop-color="#fff6e8" />
      <stop offset="0.55" stop-color="#ffffff" />
      <stop offset="1" stop-color="#fff1de" />
    </linearGradient>
    <linearGradient id="accent" x1="0" y1="0" x2="1" y2="0">
      <stop offset="0" stop-color="#ff7a1a" />
      <stop offset="1" stop-color="#ff5a00" />
    </linearGradient>
    <filter id="softShadow" x="-20%" y="-20%" width="140%" height="140%">
      <feDropShadow dx="0" dy="18" stdDeviation="18" flood-color="#111827" flood-opacity="0.16" />
    </filter>
  </defs>

  <rect width="1400" height="900" rx="56" fill="url(#bg)" />

  <circle cx="1110" cy="180" r="170" fill="#ff6a00" opacity="0.12" />
  <circle cx="1220" cy="620" r="240" fill="#111111" opacity="0.06" />
  <circle cx="260" cy="740" r="220" fill="#ff6a00" opacity="0.08" />

  <path d="M0 620 C 220 520, 360 760, 620 700 C 900 635, 980 480, 1400 560 L1400 900 L0 900 Z" fill="#111111" opacity="0.04" />
  <path d="M0 650 C 240 540, 380 790, 640 720 C 920 645, 1010 500, 1400 585" fill="none" stroke="#ff6a00" stroke-opacity="0.25" stroke-width="10" stroke-linecap="round" />

  <g filter="url(#softShadow)" transform="translate(260 190)">
    <rect x="0" y="0" width="430" height="560" rx="34" fill="#0b0b0c" />
    <rect x="26" y="50" width="378" height="420" rx="26" fill="#111827" opacity="0.92" />
    <rect x="64" y="94" width="302" height="34" rx="17" fill="#ffffff" opacity="0.12" />
    <rect x="64" y="154" width="210" height="22" rx="11" fill="#ffffff" opacity="0.10" />
    <rect x="64" y="196" width="262" height="22" rx="11" fill="#ffffff" opacity="0.08" />
    <rect x="64" y="260" width="140" height="36" rx="18" fill="url(#accent)" />
    <rect x="26" y="496" width="378" height="28" rx="14" fill="#ffffff" opacity="0.10" />
    <circle cx="215" cy="524" r="8" fill="#ffffff" opacity="0.22" />
  </g>

  <g filter="url(#softShadow)" transform="translate(725 250)">
    <rect x="0" y="0" width="420" height="480" rx="40" fill="#ffffff" opacity="0.9" />
    <rect x="32" y="34" width="356" height="150" rx="28" fill="#fff1de" />
    <rect x="58" y="70" width="220" height="22" rx="11" fill="#111111" opacity="0.14" />
    <rect x="58" y="108" width="300" height="16" rx="8" fill="#111111" opacity="0.10" />
    <rect x="32" y="214" width="356" height="120" rx="28" fill="#ffffff" stroke="#111827" stroke-opacity="0.08" />
    <rect x="58" y="246" width="268" height="18" rx="9" fill="#111111" opacity="0.10" />
    <rect x="58" y="276" width="230" height="14" rx="7" fill="#111111" opacity="0.08" />
    <rect x="32" y="360" width="220" height="60" rx="22" fill="#0b0b0c" />
    <rect x="58" y="382" width="150" height="16" rx="8" fill="#ffffff" opacity="0.18" />
    <circle cx="332" cy="395" r="50" fill="#ff6a00" opacity="0.16" />
    <path d="M318 394 l18 18 34-44" fill="none" stroke="url(#accent)" stroke-width="10" stroke-linecap="round" stroke-linejoin="round" />
  </g>
</svg>
